<svg width="62" height="56" viewBox="0 0 62 56" fill="none" xmlns="http://www.w3.org/2000/svg">
    <g filter="url(#filter0_d_0_3)">
        <g clip-path="url(#clip0_0_3)">
            <rect x="4" width="54" height="48" rx="8" fill="white"/>
            <ellipse cx="46.5" cy="24" rx="25.5" ry="23" fill="url(#paint0_linear_0_3)" fill-opacity="0.2"/>
            <line x1="61.5078" y1="4.55192" x2="9.50777" y2="52.3967" stroke="#91D7E3" stroke-opacity="0.17" stroke-width="1.5"/>
            <path d="M62 5.3983L64.4275 7.60549L12.7626 54.5812L10.3351 52.374L62 5.3983Z" fill="url(#paint1_linear_0_3)" fill-opacity="0.4"/>
        </g>
    </g>
    <path d="M23 18.75C23 18.3358 23.3358 18 23.75 18H38.25C38.6642 18 39 18.3358 39 18.75C39 19.1642 38.6642 19.5 38.25 19.5H23.75C23.3358 19.5 23 19.1642 23 18.75Z" fill="#1548A2"/>
    <path d="M23 23.75C23 23.3358 23.3358 23 23.75 23H38.25C38.6642 23 39 23.3358 39 23.75C39 24.1642 38.6642 24.5 38.25 24.5H23.75C23.3358 24.5 23 24.1642 23 23.75Z" fill="#1548A2"/>
    <path d="M23.75 28C23.3358 28 23 28.3358 23 28.75C23 29.1642 23.3358 29.5 23.75 29.5H38.25C38.6642 29.5 39 29.1642 39 28.75C39 28.3358 38.6642 28 38.25 28H23.75Z" fill="#1548A2"/>
    <defs>
        <filter id="filter0_d_0_3" x="0" y="0" width="62" height="56" filterUnits="userSpaceOnUse" color-interpolation-filters="sRGB">
            <feFlood flood-opacity="0" result="BackgroundImageFix"/>
            <feColorMatrix in="SourceAlpha" type="matrix" values="0 0 0 0 0 0 0 0 0 0 0 0 0 0 0 0 0 0 127 0" result="hardAlpha"/>
            <feOffset dy="4"/>
            <feGaussianBlur stdDeviation="2"/>
            <feComposite in2="hardAlpha" operator="out"/>
            <feColorMatrix type="matrix" values="0 0 0 0 0.568627 0 0 0 0 0.843137 0 0 0 0 0.890196 0 0 0 0.25 0"/>
            <feBlend mode="normal" in2="BackgroundImageFix" result="effect1_dropShadow_0_3"/>
            <feBlend mode="normal" in="SourceGraphic" in2="effect1_dropShadow_0_3" result="shape"/>
        </filter>
        <linearGradient id="paint0_linear_0_3" x1="56.2581" y1="0.999998" x2="43.3548" y2="34.4922" gradientUnits="userSpaceOnUse">
            <stop stop-color="#91D7E3" stop-opacity="0.4"/>
            <stop offset="1" stop-color="white" stop-opacity="0"/>
        </linearGradient>
        <linearGradient id="paint1_linear_0_3" x1="51.268" y1="17.3635" x2="16.4" y2="55.7121" gradientUnits="userSpaceOnUse">
            <stop stop-color="#91D7E3" stop-opacity="0.25"/>
            <stop offset="1" stop-color="white" stop-opacity="0.54"/>
        </linearGradient>
        <clipPath id="clip0_0_3">
            <rect x="4" width="54" height="48" rx="8" fill="white"/>
        </clipPath>
    </defs>
</svg>
