<svg width="30" height="31" viewBox="0 0 30 31" fill="none" xmlns="http://www.w3.org/2000/svg">
    <path fill-rule="evenodd" clip-rule="evenodd" d="M0 8.58442C0.00264304 6.30854 0.907961 4.12656 2.51726 2.51726C4.12656 0.907961 6.30854 0.00264304 8.58442 0H15.2604V3.62329H8.58442C7.26912 3.62477 6.00801 4.14785 5.07797 5.07797C4.14785 6.00801 3.62477 7.26912 3.62329 8.58442V14.4698H0V8.58442ZM18.3621 0.0171021H21.9512V3.60619H18.3621V0.0171021ZM24.9223 24.9394C25.8522 24.0094 26.3752 22.7486 26.3767 21.4335V15.548H30V21.4335C29.9985 23.71 29.0939 25.8929 27.4846 27.503C25.8753 29.1133 23.6929 30.019 21.4164 30.0218H14.7396V26.3938H21.4164C22.7315 26.3923 23.9923 25.8693 24.9223 24.9394ZM8.04882 30.0009H11.6379V26.4118H8.04882V30.0009ZM20.3467 15.0171C20.3467 17.9701 17.9529 20.3638 15 20.3638C12.0471 20.3638 9.6533 17.9701 9.6533 15.0171C9.6533 12.0642 12.0471 9.6704 15 9.6704C17.9529 9.6704 20.3467 12.0642 20.3467 15.0171Z" fill="url(#paint0_linear_1297_14287)"/>
    <defs>
        <linearGradient id="paint0_linear_1297_14287" x1="0.0178794" y1="15.0031" x2="30.0031" y2="15.0031" gradientUnits="userSpaceOnUse">
            <stop stop-color="#7349FF"/>
            <stop offset="0.33" stop-color="#02BEFE"/>
            <stop offset="0.66" stop-color="#02BEFE"/>
            <stop offset="1" stop-color="#7349FF"/>
        </linearGradient>
    </defs>
</svg>
