<svg width="16" height="16" viewBox="0 0 16 16" fill="none" xmlns="http://www.w3.org/2000/svg">
    <g clip-path="url(#clip0_642_22251)">
        <path d="M2.6665 4.66634C2.6665 4.31272 2.80698 3.97358 3.05703 3.72353C3.30708 3.47348 3.64622 3.33301 3.99984 3.33301H11.9998C12.3535 3.33301 12.6926 3.47348 12.9426 3.72353C13.1927 3.97358 13.3332 4.31272 13.3332 4.66634V12.6663C13.3332 13.02 13.1927 13.3591 12.9426 13.6092C12.6926 13.8592 12.3535 13.9997 11.9998 13.9997H3.99984C3.64622 13.9997 3.30708 13.8592 3.05703 13.6092C2.80698 13.3591 2.6665 13.02 2.6665 12.6663V4.66634Z" stroke="#1548A2" stroke-width="1.25" stroke-linecap="round" stroke-linejoin="round"/>
        <path d="M10.6665 2V4.66667" stroke="#1548A2" stroke-width="1.25" stroke-linecap="round" stroke-linejoin="round"/>
        <path d="M5.3335 2V4.66667" stroke="#1548A2" stroke-width="1.5" stroke-linecap="round" stroke-linejoin="round"/>
        <path d="M2.6665 7.33301H13.3332" stroke="#1548A2" stroke-width="1.5" stroke-linecap="round" stroke-linejoin="round"/>
        <path d="M5.3335 10H6.66683V11.3333H5.3335V10Z" stroke="#1548A2" stroke-width="1.5" stroke-linecap="round" stroke-linejoin="round"/>
    </g>
    <defs>
        <clipPath id="clip0_642_22251">
            <rect width="16" height="16" fill="white"/>
        </clipPath>
    </defs>
</svg>
