<svg width="32" height="32" viewBox="0 0 32 32" fill="none" xmlns="http://www.w3.org/2000/svg">
    <rect width="32" height="32" rx="8" fill="#91D7E3" fill-opacity="0.1"/>
    <path d="M23 10H11C9.89531 10 9 10.8953 9 12V20C9 21.1047 9.89531 22 11 22H23C24.1047 22 25 21.1047 25 20V12C25 10.8953 24.1031 10 23 10ZM11 11.5H23C23.2757 11.5 23.5 11.7243 23.5 12V12.6925L18.2875 17.0081C17.5628 17.6106 16.4331 17.6103 15.7103 17.0086L10.5 12.6937V12C10.5 11.725 10.7244 11.5 11 11.5ZM23 20.5H11C10.7243 20.5 10.5 20.2757 10.5 20V14.6469L14.7531 18.1906C15.3844 18.7125 16.1813 19 17 19C17.8188 19 18.6172 18.7129 19.2491 18.1881L23.5 14.6469V20C23.5 20.275 23.275 20.5 23 20.5Z" fill="#1548A2"/>
</svg>
