<svg width="373" height="86" viewBox="0 0 373 86" fill="none" xmlns="http://www.w3.org/2000/svg">
    <g clip-path="url(#clip0_0_3)">
        <rect width="373" height="86" rx="4" fill="#1B4A94"/>
        <circle cx="274" cy="102" r="140" fill="url(#paint0_linear_0_3)" fill-opacity="0.2"/>
        <line x1="351.152" y1="7.15103" x2="131.152" y2="227.151" stroke="white" stroke-opacity="0.2" stroke-width="1.5"/>
        <rect x="367.852" width="19" height="315.678" transform="rotate(45 367.852 0)" fill="url(#paint1_linear_0_3)" fill-opacity="0.4"/>
        <path d="M350.417 10.1094C350.417 10.1087 350.416 10.1081 350.416 10.1078C350.094 9.77125 349.651 9.56313 349.162 9.5625H347.963C347.493 9.56281 347.067 9.75641 346.749 10.0694C346.735 10.0831 346.72 10.0959 346.707 10.11C346.703 10.1139 346.7 10.1186 346.696 10.1225C346.382 10.46 346.188 10.923 346.188 11.4337V12.6914C346.188 13.1944 346.376 13.6502 346.682 13.9864C346.691 13.9959 346.698 14.0061 346.707 14.0155C346.712 14.0206 346.718 14.0253 346.723 14.0303C347.043 14.3591 347.48 14.5623 347.963 14.5627H349.162C349.632 14.5623 350.058 14.3688 350.376 14.0558C350.39 14.042 350.405 14.0292 350.418 14.0152C350.422 14.0113 350.425 14.0066 350.429 14.0027C350.743 13.6652 350.937 13.2022 350.937 12.6914V11.4337C350.937 10.9364 350.753 10.4861 350.453 10.1509C350.441 10.1373 350.43 10.1227 350.417 10.1094Z" fill="white"/>
        <path d="M362.292 10.1094C362.292 10.1087 362.291 10.1081 362.291 10.1078C361.969 9.77125 361.526 9.56313 361.037 9.5625H359.838C359.368 9.56281 358.942 9.75641 358.624 10.0694C358.61 10.0831 358.595 10.0959 358.582 10.11C358.578 10.1139 358.575 10.1186 358.571 10.1225C358.257 10.46 358.062 10.923 358.062 11.4337V12.6914C358.062 13.1944 358.251 13.6502 358.557 13.9864C358.566 13.9959 358.573 14.0061 358.582 14.0155C358.587 14.0206 358.592 14.0253 358.598 14.0303C358.918 14.3591 359.355 14.5623 359.838 14.5627H361.037C361.507 14.5623 361.933 14.3688 362.251 14.0558C362.265 14.042 362.28 14.0292 362.293 14.0152C362.297 14.0113 362.3 14.0066 362.304 14.0027C362.618 13.6652 362.812 13.2022 362.812 12.6914V11.4337C362.812 10.9364 362.628 10.4861 362.328 10.1509C362.316 10.1373 362.305 10.1227 362.292 10.1094Z" fill="white"/>
        <path d="M356.355 10.1094C356.355 10.1087 356.354 10.1081 356.353 10.1078C356.032 9.77125 355.589 9.56313 355.099 9.5625H353.901C353.431 9.56281 353.004 9.75641 352.687 10.0694C352.673 10.0831 352.658 10.0959 352.644 10.11C352.641 10.1139 352.637 10.1186 352.634 10.1225C352.319 10.46 352.125 10.923 352.125 11.4337V12.6914C352.125 13.1944 352.314 13.6502 352.62 13.9864C352.628 13.9959 352.636 14.0061 352.645 14.0155C352.65 14.0206 352.655 14.0253 352.66 14.0303C352.98 14.3591 353.418 14.5623 353.901 14.5627H355.1C355.569 14.5623 355.996 14.3688 356.314 14.0558C356.328 14.042 356.342 14.0292 356.356 14.0152C356.359 14.0113 356.363 14.0066 356.366 14.0027C356.681 13.6652 356.875 13.2022 356.875 12.6914V11.4337C356.875 10.9364 356.69 10.4861 356.391 10.1509C356.379 10.1373 356.368 10.1227 356.355 10.1094Z" fill="white"/>
    </g>
    <defs>
        <linearGradient id="paint0_linear_0_3" x1="327.574" y1="-38" x2="243" y2="160" gradientUnits="userSpaceOnUse">
            <stop stop-color="white"/>
            <stop offset="1" stop-color="white" stop-opacity="0"/>
        </linearGradient>
        <linearGradient id="paint1_linear_0_3" x1="377.352" y1="80.3026" x2="377.352" y2="315.678" gradientUnits="userSpaceOnUse">
            <stop stop-color="white" stop-opacity="0"/>
            <stop offset="1" stop-color="white" stop-opacity="0.54"/>
        </linearGradient>
        <clipPath id="clip0_0_3">
            <rect width="373" height="86" rx="4" fill="white"/>
        </clipPath>
    </defs>
</svg>
