<svg width="96" height="44" viewBox="0 0 96 44" fill="none" xmlns="http://www.w3.org/2000/svg">
    <g filter="url(#filter0_d_642_19542)">
        <g clip-path="url(#clip0_642_19542)">
            <rect x="4" width="88" height="36" rx="8" fill="white"/>
            <ellipse cx="81" cy="15" rx="28" ry="25" fill="url(#paint0_linear_642_19542)" fill-opacity="0.2"/>
            <line y1="-0.75" x2="77.3296" y2="-0.75" transform="matrix(-0.73649 0.676449 -0.677736 -0.735305 96.9524 -6.71973)" stroke="#91D7E3" stroke-opacity="0.17" stroke-width="1.5"/>
            <path d="M98.0476 -5.19139L100.706 -2.77824L44.1209 48.581L41.4622 46.1679L98.0476 -5.19139Z" fill="url(#paint1_linear_642_19542)" fill-opacity="0.4"/>
            <path d="M29.3383 14.885C29.3383 15.015 29.2933 15.135 29.2033 15.245C29.1233 15.345 29.0283 15.42 28.9183 15.47C28.6683 15.29 28.3633 15.12 28.0033 14.96C27.6533 14.8 27.1983 14.72 26.6383 14.72C26.0283 14.72 25.4783 14.86 24.9883 15.14C24.5083 15.42 24.1233 15.84 23.8333 16.4C23.5533 16.95 23.4133 17.635 23.4133 18.455C23.4133 19.685 23.7133 20.61 24.3133 21.23C24.9233 21.85 25.7133 22.16 26.6833 22.16C27.2033 22.16 27.6583 22.085 28.0483 21.935C28.4383 21.785 28.7583 21.615 29.0083 21.425C29.1083 21.465 29.2033 21.54 29.2933 21.65C29.3833 21.75 29.4283 21.87 29.4283 22.01C29.4283 22.11 29.3983 22.21 29.3383 22.31C29.2883 22.4 29.1983 22.49 29.0683 22.58C28.8383 22.74 28.5233 22.88 28.1233 23C27.7233 23.13 27.2133 23.195 26.5933 23.195C25.7633 23.195 25.0083 23.02 24.3283 22.67C23.6583 22.31 23.1283 21.78 22.7383 21.08C22.3483 20.38 22.1533 19.505 22.1533 18.455C22.1533 17.405 22.3533 16.525 22.7533 15.815C23.1633 15.105 23.6983 14.575 24.3583 14.225C25.0283 13.865 25.7583 13.685 26.5483 13.685C27.0983 13.685 27.5833 13.745 28.0033 13.865C28.4233 13.985 28.7483 14.14 28.9783 14.33C29.2183 14.51 29.3383 14.695 29.3383 14.885ZM37.3016 20.015H36.1016V18.635C36.1016 18.035 35.9316 17.59 35.5916 17.3C35.2616 17.01 34.8316 16.865 34.3016 16.865C33.9116 16.865 33.5466 16.94 33.2066 17.09C32.8766 17.24 32.5966 17.42 32.3666 17.63L32.1416 16.655C32.3816 16.485 32.6966 16.315 33.0866 16.145C33.4866 15.965 33.9466 15.875 34.4666 15.875C35.2966 15.875 35.9766 16.1 36.5066 16.55C37.0366 17 37.3016 17.685 37.3016 18.605V20.015ZM31.3166 19.04H32.5166V22.97C32.4666 22.99 32.3916 23.01 32.2916 23.03C32.1916 23.06 32.0816 23.075 31.9616 23.075C31.7516 23.075 31.5916 23.035 31.4816 22.955C31.3716 22.865 31.3166 22.725 31.3166 22.535V19.04ZM36.1016 19.055L37.3016 19.07V22.97C37.2516 22.99 37.1716 23.01 37.0616 23.03C36.9616 23.06 36.8566 23.075 36.7466 23.075C36.5266 23.075 36.3616 23.035 36.2516 22.955C36.1516 22.865 36.1016 22.725 36.1016 22.535V19.055ZM32.5166 19.625H31.3166V13.28C31.3666 13.26 31.4416 13.24 31.5416 13.22C31.6516 13.19 31.7666 13.175 31.8866 13.175C32.0966 13.175 32.2516 13.22 32.3516 13.31C32.4616 13.39 32.5166 13.525 32.5166 13.715V19.625ZM39.5483 20.465V19.1H40.7483V20.405C40.7483 21.045 40.9183 21.505 41.2583 21.785C41.5983 22.065 42.0683 22.205 42.6683 22.205C43.0683 22.205 43.4083 22.165 43.6883 22.085C43.9683 21.995 44.1883 21.905 44.3483 21.815V19.1H45.5483V21.77C45.5483 21.98 45.5183 22.15 45.4583 22.28C45.4083 22.4 45.2783 22.52 45.0683 22.64C44.8483 22.77 44.5333 22.895 44.1233 23.015C43.7133 23.135 43.2233 23.195 42.6533 23.195C41.9933 23.195 41.4283 23.1 40.9583 22.91C40.4983 22.71 40.1483 22.41 39.9083 22.01C39.6683 21.6 39.5483 21.085 39.5483 20.465ZM45.5483 19.88H44.3483V16.1C44.3983 16.08 44.4733 16.06 44.5733 16.04C44.6833 16.01 44.7933 15.995 44.9033 15.995C45.1233 15.995 45.2833 16.04 45.3833 16.13C45.4933 16.21 45.5483 16.35 45.5483 16.55V19.88ZM40.7483 19.88H39.5483V16.1C39.5983 16.08 39.6733 16.06 39.7733 16.04C39.8833 16.01 39.9983 15.995 40.1183 15.995C40.3283 15.995 40.4833 16.04 40.5833 16.13C40.6933 16.21 40.7483 16.35 40.7483 16.55V19.88ZM43.5383 24.935C43.5383 25.155 43.4633 25.335 43.3133 25.475C43.1733 25.615 42.9883 25.685 42.7583 25.685C42.5383 25.685 42.3583 25.615 42.2183 25.475C42.0783 25.335 42.0083 25.155 42.0083 24.935C42.0083 24.715 42.0783 24.535 42.2183 24.395C42.3583 24.255 42.5383 24.185 42.7583 24.185C42.9883 24.185 43.1733 24.255 43.3133 24.395C43.4633 24.535 43.5383 24.715 43.5383 24.935ZM50.7504 23.195C50.3204 23.195 49.9154 23.13 49.5354 23C49.1654 22.88 48.8954 22.745 48.7254 22.595V21.485C48.9254 21.675 49.1754 21.845 49.4754 21.995C49.7854 22.135 50.1554 22.205 50.5854 22.205C51.2854 22.205 51.8454 21.995 52.2654 21.575C52.6954 21.145 52.9104 20.46 52.9104 19.52C52.9104 18.86 52.8004 18.34 52.5804 17.96C52.3704 17.57 52.0854 17.29 51.7254 17.12C51.3754 16.95 50.9954 16.865 50.5854 16.865C50.2254 16.865 49.9204 16.91 49.6704 17C49.4204 17.09 49.1954 17.19 48.9954 17.3V22.28H47.7954V17.33C47.7954 17.13 47.8304 16.97 47.9004 16.85C47.9704 16.73 48.1154 16.605 48.3354 16.475C48.6054 16.325 48.9254 16.19 49.2954 16.07C49.6754 15.94 50.1054 15.875 50.5854 15.875C51.2454 15.875 51.8404 16.005 52.3704 16.265C52.9104 16.515 53.3354 16.91 53.6454 17.45C53.9654 17.98 54.1254 18.67 54.1254 19.52C54.1254 20.34 53.9804 21.025 53.6904 21.575C53.4104 22.115 53.0154 22.52 52.5054 22.79C51.9954 23.06 51.4104 23.195 50.7504 23.195ZM48.4404 25.805C48.2304 25.805 48.0704 25.76 47.9604 25.67C47.8504 25.58 47.7954 25.44 47.7954 25.25V21.845L48.9954 21.875V25.7C48.9454 25.72 48.8704 25.74 48.7704 25.76C48.6704 25.79 48.5604 25.805 48.4404 25.805ZM59.1068 19.04L60.3068 19.22V22.97C60.2568 22.99 60.1818 23.01 60.0818 23.03C59.9818 23.06 59.8718 23.075 59.7518 23.075C59.5418 23.075 59.3818 23.035 59.2718 22.955C59.1618 22.865 59.1068 22.725 59.1068 22.535V19.04ZM60.3068 19.79L59.1068 19.625V13.28C59.1568 13.26 59.2318 13.24 59.3318 13.22C59.4418 13.19 59.5518 13.175 59.6618 13.175C59.8818 13.175 60.0418 13.22 60.1418 13.31C60.2518 13.39 60.3068 13.525 60.3068 13.715V19.79ZM65.1532 23.21C64.2132 23.21 63.4832 23.025 62.9632 22.655C62.4532 22.285 62.1982 21.75 62.1982 21.05C62.1982 20.4 62.4132 19.905 62.8432 19.565C63.2832 19.215 63.8882 19.005 64.6582 18.935L66.7882 18.725V18.305C66.7882 17.805 66.6382 17.44 66.3382 17.21C66.0382 16.98 65.6332 16.865 65.1232 16.865C64.7132 16.865 64.3182 16.925 63.9382 17.045C63.5682 17.165 63.2382 17.3 62.9482 17.45C62.8682 17.38 62.7932 17.3 62.7232 17.21C62.6632 17.11 62.6332 17.01 62.6332 16.91C62.6332 16.65 62.7782 16.45 63.0682 16.31C63.3382 16.17 63.6482 16.065 63.9982 15.995C64.3582 15.915 64.7382 15.875 65.1382 15.875C66.0082 15.875 66.6982 16.07 67.2082 16.46C67.7182 16.85 67.9732 17.465 67.9732 18.305V21.86C67.9732 22.08 67.9282 22.25 67.8382 22.37C67.7582 22.48 67.6332 22.585 67.4632 22.685C67.2232 22.815 66.9032 22.935 66.5032 23.045C66.1032 23.155 65.6532 23.21 65.1532 23.21ZM65.1532 22.22C65.5732 22.22 65.9182 22.18 66.1882 22.1C66.4682 22.01 66.6682 21.925 66.7882 21.845V19.67L64.9282 19.865C64.4082 19.905 64.0232 20.02 63.7732 20.21C63.5232 20.4 63.3982 20.675 63.3982 21.035C63.3982 21.405 63.5432 21.695 63.8332 21.905C64.1332 22.115 64.5732 22.22 65.1532 22.22ZM66.0532 24.935C66.0532 25.155 65.9782 25.335 65.8282 25.475C65.6882 25.615 65.5032 25.685 65.2732 25.685C65.0532 25.685 64.8732 25.615 64.7332 25.475C64.5932 25.335 64.5232 25.155 64.5232 24.935C64.5232 24.715 64.5932 24.535 64.7332 24.395C64.8732 24.255 65.0532 24.185 65.2732 24.185C65.5032 24.185 65.6882 24.255 65.8282 24.395C65.9782 24.535 66.0532 24.715 66.0532 24.935ZM70.0586 13.88C70.0586 13.67 70.1336 13.495 70.2836 13.355C70.4336 13.205 70.6186 13.13 70.8386 13.13C71.0686 13.13 71.2536 13.205 71.3936 13.355C71.5336 13.495 71.6036 13.67 71.6036 13.88C71.6036 14.09 71.5336 14.27 71.3936 14.42C71.2536 14.56 71.0686 14.63 70.8386 14.63C70.6186 14.63 70.4336 14.56 70.2836 14.42C70.1336 14.27 70.0586 14.09 70.0586 13.88ZM70.2386 19.04H71.4386V22.97C71.3886 22.99 71.3136 23.01 71.2136 23.03C71.1136 23.06 71.0036 23.075 70.8836 23.075C70.6736 23.075 70.5136 23.035 70.4036 22.955C70.2936 22.865 70.2386 22.725 70.2386 22.535V19.04ZM71.4386 19.625H70.2386V16.1C70.2886 16.08 70.3636 16.06 70.4636 16.04C70.5736 16.01 70.6886 15.995 70.8086 15.995C71.0186 15.995 71.1736 16.04 71.2736 16.13C71.3836 16.21 71.4386 16.35 71.4386 16.55V19.625Z" fill="black"/>
        </g>
    </g>
    <defs>
        <filter id="filter0_d_642_19542" x="0" y="0" width="96" height="44" filterUnits="userSpaceOnUse" color-interpolation-filters="sRGB">
            <feFlood flood-opacity="0" result="BackgroundImageFix"/>
            <feColorMatrix in="SourceAlpha" type="matrix" values="0 0 0 0 0 0 0 0 0 0 0 0 0 0 0 0 0 0 127 0" result="hardAlpha"/>
            <feOffset dy="4"/>
            <feGaussianBlur stdDeviation="2"/>
            <feComposite in2="hardAlpha" operator="out"/>
            <feColorMatrix type="matrix" values="0 0 0 0 0.568627 0 0 0 0 0.843137 0 0 0 0 0.890196 0 0 0 0.25 0"/>
            <feBlend mode="normal" in2="BackgroundImageFix" result="effect1_dropShadow_642_19542"/>
            <feBlend mode="normal" in="SourceGraphic" in2="effect1_dropShadow_642_19542" result="shape"/>
        </filter>
        <linearGradient id="paint0_linear_642_19542" x1="91.7148" y1="-10" x2="77.7948" y2="26.4993" gradientUnits="userSpaceOnUse">
            <stop stop-color="#91D7E3" stop-opacity="0.4"/>
            <stop offset="1" stop-color="white" stop-opacity="0"/>
        </linearGradient>
        <linearGradient id="paint1_linear_642_19542" x1="86.2935" y1="7.89032" x2="48.1781" y2="49.8842" gradientUnits="userSpaceOnUse">
            <stop stop-color="#91D7E3" stop-opacity="0.25"/>
            <stop offset="1" stop-color="white" stop-opacity="0.54"/>
        </linearGradient>
        <clipPath id="clip0_642_19542">
            <rect x="4" width="88" height="36" rx="8" fill="white"/>
        </clipPath>
    </defs>
</svg>
