<svg width="81" height="79" viewBox="0 0 81 79" fill="none" xmlns="http://www.w3.org/2000/svg">
    <path fill-rule="evenodd" clip-rule="evenodd" d="M0 22.5893C0.00713619 16.6004 2.45149 10.8587 6.7966 6.62397C11.1417 2.38923 17.033 0.00695495 23.1779 0H41.2031V9.53441H23.1779C19.6266 9.5383 16.2216 10.9148 13.7105 13.3623C11.1992 15.8096 9.78687 19.1281 9.78288 22.5893V38.0763H0V22.5893ZM49.5777 0.0450028H59.2682V9.48941H49.5777V0.0450028ZM67.2901 65.6261C69.801 63.1789 71.2131 59.8612 71.2171 56.4005V40.9135H81V56.4005C80.996 62.391 78.5536 68.1351 74.2085 72.3721C69.8633 76.6093 63.9707 78.9928 57.8242 79H39.7969V69.4533H57.8242C61.3751 69.4494 64.7792 68.073 67.2901 65.6261ZM21.7318 78.945H31.4223V69.5006H21.7318V78.945ZM54.9361 39.5164C54.9361 47.2869 48.4728 53.5858 40.5 53.5858C32.5272 53.5858 26.0639 47.2869 26.0639 39.5164C26.0639 31.746 32.5272 25.4469 40.5 25.4469C48.4728 25.4469 54.9361 31.746 54.9361 39.5164Z" fill="url(#paint0_linear_1557_14790)" fill-opacity="0.1"/>
    <defs>
        <linearGradient id="paint0_linear_1557_14790" x1="0.0482743" y1="39.4795" x2="81.0084" y2="39.4795" gradientUnits="userSpaceOnUse">
            <stop stop-color="#7349FF"/>
            <stop offset="0.33" stop-color="#02BEFE"/>
            <stop offset="0.66" stop-color="#02BEFE"/>
            <stop offset="1" stop-color="#7349FF"/>
        </linearGradient>
    </defs>
</svg>
