<svg width="32" height="32" viewBox="0 0 32 32" fill="none" xmlns="http://www.w3.org/2000/svg">
    <rect width="32" height="32" rx="8" fill="#91D7E3" fill-opacity="0.1"/>
    <g clip-path="url(#clip0_159_3229)">
        <path d="M23 12H20V11C19.9991 10.2046 19.6828 9.44207 19.1203 8.87965C18.5579 8.31724 17.7954 8.00088 17 8H15C14.2046 8.00088 13.4421 8.31724 12.8797 8.87965C12.3172 9.44207 12.0009 10.2046 12 11V12H9C8.86866 11.9999 8.73859 12.0257 8.61723 12.076C8.49587 12.1262 8.3856 12.1999 8.29273 12.2927C8.19985 12.3856 8.1262 12.4959 8.07597 12.6172C8.02574 12.7386 7.99993 12.8687 8 13V23C7.99993 23.1313 8.02574 23.2614 8.07597 23.3828C8.1262 23.5041 8.19985 23.6144 8.29273 23.7073C8.3856 23.8001 8.49587 23.8738 8.61723 23.924C8.73859 23.9743 8.86866 24.0001 9 24H23C23.1313 24.0001 23.2614 23.9743 23.3828 23.924C23.5041 23.8738 23.6144 23.8001 23.7073 23.7073C23.8001 23.6144 23.8738 23.5041 23.924 23.3828C23.9743 23.2614 24.0001 23.1313 24 23V13C24.0001 12.8687 23.9743 12.7386 23.924 12.6172C23.8738 12.4959 23.8001 12.3856 23.7073 12.2927C23.6144 12.1999 23.5041 12.1262 23.3828 12.076C23.2614 12.0257 23.1313 11.9999 23 12ZM14 11C14.0003 10.7349 14.1058 10.4807 14.2933 10.2933C14.4807 10.1058 14.7349 10.0003 15 10H17C17.2651 10.0003 17.5193 10.1058 17.7067 10.2933C17.8942 10.4807 17.9997 10.7349 18 11V12H14V11ZM22 22H10V14H22V22Z" fill="#1548A2"/>
    </g>
    <defs>
        <clipPath id="clip0_159_3229">
            <rect width="16" height="16" fill="white" transform="translate(8 8)"/>
        </clipPath>
    </defs>
</svg>
