<svg width="32" height="32" viewBox="0 0 32 32" fill="none" xmlns="http://www.w3.org/2000/svg">
    <rect width="32" height="32" rx="8" fill="#91D7E3" fill-opacity="0.1"/>
    <path d="M22.8 14.8398V13.2798C22.8 9.71981 19.76 6.7998 16 6.7998C12.24 6.7998 9.20005 9.71981 9.20005 13.2798V14.8398C8.53557 14.9357 7.92767 15.2672 7.48713 15.7738C7.04659 16.2804 6.80275 16.9284 6.80005 17.5998V18.3998C6.80005 19.1424 7.09505 19.8546 7.62015 20.3797C8.14525 20.9048 8.85744 21.1998 9.60005 21.1998H10.8C11.0122 21.1998 11.2157 21.1155 11.3657 20.9655C11.5158 20.8155 11.6 20.612 11.6 20.3998V15.5998C11.6 15.3876 11.5158 15.1841 11.3657 15.0341C11.2157 14.8841 11.0122 14.7998 10.8 14.7998V13.2798C10.8 10.5998 13.12 8.3998 16 8.3998C18.88 8.3998 21.2 10.5998 21.2 13.2798V14.7998C20.9879 14.7998 20.7844 14.8841 20.6344 15.0341C20.4843 15.1841 20.4 15.3876 20.4 15.5998V20.3998C20.4023 20.5915 20.4732 20.776 20.6 20.9198C19.4877 21.7015 18.1928 22.1836 16.84 22.3198C16.6691 22.1473 16.4498 22.0306 16.2111 21.9854C15.9724 21.9402 15.7256 21.9684 15.5034 22.0665C15.2811 22.1645 15.0939 22.3277 14.9663 22.5344C14.8388 22.7412 14.777 22.9817 14.7891 23.2243C14.8013 23.467 14.8867 23.7002 15.0343 23.8932C15.1818 24.0862 15.3844 24.2298 15.6153 24.3052C15.8463 24.3806 16.0946 24.3841 16.3276 24.3153C16.5605 24.2465 16.7671 24.1086 16.92 23.9198C19.0587 23.7421 21.0679 22.8224 22.6 21.3198L22.72 21.1598C23.399 21.0817 24.026 20.758 24.4829 20.2496C24.9397 19.7412 25.1948 19.0833 25.2 18.3998V17.5998C25.1973 16.9284 24.9535 16.2804 24.513 15.7738C24.0724 15.2672 23.4645 14.9357 22.8 14.8398ZM10 19.5998H9.60005C9.28179 19.5998 8.97656 19.4734 8.75152 19.2483C8.52648 19.0233 8.40005 18.7181 8.40005 18.3998V17.5998C8.40005 17.2815 8.52648 16.9763 8.75152 16.7513C8.97656 16.5262 9.28179 16.3998 9.60005 16.3998H10V19.5998ZM23.6 18.3998C23.6 18.7181 23.4736 19.0233 23.2486 19.2483C23.0235 19.4734 22.7183 19.5998 22.4 19.5998H22V16.3998H22.4C22.7183 16.3998 23.0235 16.5262 23.2486 16.7513C23.4736 16.9763 23.6 17.2815 23.6 17.5998V18.3998Z" fill="#1548A2"/>
</svg>
