<svg width="113" height="44" viewBox="0 0 113 44" fill="none" xmlns="http://www.w3.org/2000/svg">
    <g filter="url(#filter0_d_745_6923)">
        <g clip-path="url(#clip0_745_6923)">
            <rect x="4" width="105" height="36" rx="8" fill="white"/>
            <ellipse cx="81" cy="15" rx="28" ry="25" fill="url(#paint0_linear_745_6923)" fill-opacity="0.2"/>
            <line y1="-0.75" x2="77.3296" y2="-0.75" transform="matrix(-0.73649 0.676449 -0.677736 -0.735305 96.9521 -6.71997)" stroke="#91D7E3" stroke-opacity="0.17" stroke-width="1.5"/>
            <path d="M98.0479 -5.19114L100.707 -2.77799L44.1211 48.5813L41.4624 46.1681L98.0479 -5.19114Z" fill="url(#paint1_linear_745_6923)" fill-opacity="0.4"/>
            <path d="M12.4029 14.915L13.4229 14.825C13.4629 15.135 13.4979 15.5 13.5279 15.92C13.5579 16.34 13.5779 16.775 13.5879 17.225C13.6079 17.665 13.6179 18.085 13.6179 18.485V22.97C13.5679 22.99 13.4879 23.01 13.3779 23.03C13.2779 23.06 13.1729 23.075 13.0629 23.075C12.8429 23.075 12.6779 23.035 12.5679 22.955C12.4579 22.865 12.4029 22.725 12.4029 22.535V14.915ZM19.6329 21.965L18.5979 22.055C18.4979 21.215 18.4379 20.36 18.4179 19.49C18.4079 18.61 18.4029 17.76 18.4029 16.94V13.91C18.4629 13.89 18.5429 13.87 18.6429 13.85C18.7429 13.82 18.8529 13.805 18.9729 13.805C19.1929 13.805 19.3579 13.85 19.4679 13.94C19.5779 14.02 19.6329 14.155 19.6329 14.345V21.965ZM19.6329 21.515V21.455V22.835C19.5429 22.905 19.4279 22.965 19.2879 23.015C19.1479 23.065 18.9929 23.09 18.8229 23.09C18.5829 23.09 18.3779 23.045 18.2079 22.955C18.0379 22.855 17.8829 22.68 17.7429 22.43L14.8929 17.63C14.7429 17.36 14.5779 17.065 14.3979 16.745C14.2179 16.415 14.0479 16.105 13.8879 15.815C13.7279 15.515 13.6029 15.27 13.5129 15.08L12.4029 15.365V14.06C12.4829 13.98 12.5929 13.915 12.7329 13.865C12.8829 13.815 13.0429 13.79 13.2129 13.79C13.4529 13.79 13.6579 13.84 13.8279 13.94C13.9979 14.03 14.1529 14.2 14.2929 14.45L17.1579 19.25C17.3179 19.52 17.4829 19.82 17.6529 20.15C17.8329 20.47 17.9979 20.78 18.1479 21.08C18.2979 21.37 18.4179 21.61 18.5079 21.8L19.6329 21.515ZM28.1102 20.015H26.9102V18.635C26.9102 18.035 26.7402 17.59 26.4002 17.3C26.0702 17.01 25.6402 16.865 25.1102 16.865C24.7202 16.865 24.3552 16.94 24.0152 17.09C23.6852 17.24 23.4052 17.42 23.1752 17.63L22.9502 16.655C23.1902 16.485 23.5052 16.315 23.8952 16.145C24.2952 15.965 24.7552 15.875 25.2752 15.875C26.1052 15.875 26.7852 16.1 27.3152 16.55C27.8452 17 28.1102 17.685 28.1102 18.605V20.015ZM22.1252 19.04H23.3252V22.97C23.2752 22.99 23.2002 23.01 23.1002 23.03C23.0002 23.06 22.8902 23.075 22.7702 23.075C22.5602 23.075 22.4002 23.035 22.2902 22.955C22.1802 22.865 22.1252 22.725 22.1252 22.535V19.04ZM26.9102 19.055L28.1102 19.07V22.97C28.0602 22.99 27.9802 23.01 27.8702 23.03C27.7702 23.06 27.6652 23.075 27.5552 23.075C27.3352 23.075 27.1702 23.035 27.0602 22.955C26.9602 22.865 26.9102 22.725 26.9102 22.535V19.055ZM23.3252 19.625H22.1252V13.28C22.1752 13.26 22.2502 13.24 22.3502 13.22C22.4602 13.19 22.5752 13.175 22.6952 13.175C22.9052 13.175 23.0602 13.22 23.1602 13.31C23.2702 13.39 23.3252 13.525 23.3252 13.715V19.625ZM32.8319 23.21C31.8919 23.21 31.1619 23.025 30.6419 22.655C30.1319 22.285 29.8769 21.75 29.8769 21.05C29.8769 20.4 30.0919 19.905 30.5219 19.565C30.9619 19.215 31.5669 19.005 32.3369 18.935L34.4669 18.725V18.305C34.4669 17.805 34.3169 17.44 34.0169 17.21C33.7169 16.98 33.3119 16.865 32.8019 16.865C32.3919 16.865 31.9969 16.925 31.6169 17.045C31.2469 17.165 30.9169 17.3 30.6269 17.45C30.5469 17.38 30.4719 17.3 30.4019 17.21C30.3419 17.11 30.3119 17.01 30.3119 16.91C30.3119 16.65 30.4569 16.45 30.7469 16.31C31.0169 16.17 31.3269 16.065 31.6769 15.995C32.0369 15.915 32.4169 15.875 32.8169 15.875C33.6869 15.875 34.3769 16.07 34.8869 16.46C35.3969 16.85 35.6519 17.465 35.6519 18.305V21.86C35.6519 22.08 35.6069 22.25 35.5169 22.37C35.4369 22.48 35.3119 22.585 35.1419 22.685C34.9019 22.815 34.5819 22.935 34.1819 23.045C33.7819 23.155 33.3319 23.21 32.8319 23.21ZM32.8319 22.22C33.2519 22.22 33.5969 22.18 33.8669 22.1C34.1469 22.01 34.3469 21.925 34.4669 21.845V19.67L32.6069 19.865C32.0869 19.905 31.7019 20.02 31.4519 20.21C31.2019 20.4 31.0769 20.675 31.0769 21.035C31.0769 21.405 31.2219 21.695 31.5119 21.905C31.8119 22.115 32.2519 22.22 32.8319 22.22ZM34.0319 14.885L33.0569 13.73C32.8269 14.01 32.5969 14.27 32.3669 14.51C32.1469 14.74 31.9369 14.97 31.7369 15.2C31.5569 15.18 31.4069 15.125 31.2869 15.035C31.1669 14.945 31.1069 14.835 31.1069 14.705C31.1069 14.595 31.1369 14.5 31.1969 14.42C31.2669 14.33 31.3469 14.235 31.4369 14.135L32.3519 13.145C32.4819 13.035 32.5969 12.95 32.6969 12.89C32.8069 12.83 32.9269 12.8 33.0569 12.8C33.2169 12.8 33.3469 12.83 33.4469 12.89C33.5569 12.95 33.6619 13.04 33.7619 13.16L35.0219 14.66C35.0219 14.79 34.9819 14.91 34.9019 15.02C34.8319 15.12 34.7169 15.17 34.5569 15.17C34.4369 15.17 34.3369 15.145 34.2569 15.095C34.1869 15.035 34.1119 14.965 34.0319 14.885ZM33.7319 24.935C33.7319 25.155 33.6569 25.335 33.5069 25.475C33.3669 25.615 33.1819 25.685 32.9519 25.685C32.7319 25.685 32.5519 25.615 32.4119 25.475C32.2719 25.335 32.2019 25.155 32.2019 24.935C32.2019 24.715 32.2719 24.535 32.4119 24.395C32.5519 24.255 32.7319 24.185 32.9519 24.185C33.1819 24.185 33.3669 24.255 33.5069 24.395C33.6569 24.535 33.7319 24.715 33.7319 24.935ZM40.7973 23.195C40.3673 23.195 39.9623 23.13 39.5823 23C39.2123 22.88 38.9423 22.745 38.7723 22.595V21.485C38.9723 21.675 39.2223 21.845 39.5223 21.995C39.8323 22.135 40.2023 22.205 40.6323 22.205C41.3323 22.205 41.8923 21.995 42.3123 21.575C42.7423 21.145 42.9573 20.46 42.9573 19.52C42.9573 18.86 42.8473 18.34 42.6273 17.96C42.4173 17.57 42.1323 17.29 41.7723 17.12C41.4223 16.95 41.0423 16.865 40.6323 16.865C40.2723 16.865 39.9673 16.91 39.7173 17C39.4673 17.09 39.2423 17.19 39.0423 17.3V22.28H37.8423V17.33C37.8423 17.13 37.8773 16.97 37.9473 16.85C38.0173 16.73 38.1623 16.605 38.3823 16.475C38.6523 16.325 38.9723 16.19 39.3423 16.07C39.7223 15.94 40.1523 15.875 40.6323 15.875C41.2923 15.875 41.8873 16.005 42.4173 16.265C42.9573 16.515 43.3823 16.91 43.6923 17.45C44.0123 17.98 44.1723 18.67 44.1723 19.52C44.1723 20.34 44.0273 21.025 43.7373 21.575C43.4573 22.115 43.0623 22.52 42.5523 22.79C42.0423 23.06 41.4573 23.195 40.7973 23.195ZM38.4873 25.805C38.2773 25.805 38.1173 25.76 38.0073 25.67C37.8973 25.58 37.8423 25.44 37.8423 25.25V21.845L39.0423 21.875V25.7C38.9923 25.72 38.9173 25.74 38.8173 25.76C38.7173 25.79 38.6073 25.805 38.4873 25.805ZM53.9237 21.155C53.9237 21.795 53.6887 22.295 53.2187 22.655C52.7487 23.015 52.0687 23.195 51.1787 23.195C50.4187 23.195 49.7987 23.08 49.3187 22.85C48.8387 22.61 48.5987 22.35 48.5987 22.07C48.5987 21.95 48.6287 21.835 48.6887 21.725C48.7587 21.605 48.8587 21.51 48.9887 21.44C49.2587 21.63 49.5737 21.805 49.9337 21.965C50.2937 22.125 50.7037 22.205 51.1637 22.205C52.2037 22.205 52.7237 21.855 52.7237 21.155C52.7237 20.865 52.6337 20.63 52.4537 20.45C52.2837 20.26 52.0287 20.125 51.6887 20.045L50.4437 19.715C49.8337 19.565 49.3887 19.335 49.1087 19.025C48.8287 18.705 48.6887 18.31 48.6887 17.84C48.6887 17.31 48.9037 16.85 49.3337 16.46C49.7637 16.07 50.4187 15.875 51.2987 15.875C51.7687 15.875 52.1787 15.925 52.5287 16.025C52.8787 16.115 53.1487 16.24 53.3387 16.4C53.5387 16.55 53.6387 16.715 53.6387 16.895C53.6387 17.025 53.6037 17.14 53.5337 17.24C53.4737 17.34 53.3887 17.415 53.2787 17.465C53.1587 17.385 53.0037 17.3 52.8137 17.21C52.6337 17.11 52.4187 17.03 52.1687 16.97C51.9187 16.9 51.6437 16.865 51.3437 16.865C50.9037 16.865 50.5487 16.95 50.2787 17.12C50.0087 17.29 49.8737 17.53 49.8737 17.84C49.8737 18.06 49.9487 18.255 50.0987 18.425C50.2587 18.585 50.5087 18.705 50.8487 18.785L51.8837 19.04C52.5637 19.2 53.0737 19.455 53.4137 19.805C53.7537 20.145 53.9237 20.595 53.9237 21.155ZM60.6609 12.47L61.7859 11.135C61.9759 11.145 62.1259 11.2 62.2359 11.3C62.3559 11.4 62.4159 11.505 62.4159 11.615C62.4159 11.745 62.3809 11.855 62.3109 11.945C62.2509 12.025 62.1709 12.12 62.0709 12.23L61.0809 13.31C60.8909 13.31 60.7409 13.265 60.6309 13.175C60.5309 13.085 60.4809 12.985 60.4809 12.875C60.4809 12.795 60.4959 12.73 60.5259 12.68C60.5559 12.62 60.6009 12.55 60.6609 12.47ZM62.2509 19.535C62.2509 20.275 62.1109 20.92 61.8309 21.47C61.5509 22.02 61.1559 22.445 60.6459 22.745C60.1359 23.045 59.5359 23.195 58.8459 23.195C58.1559 23.195 57.5509 23.045 57.0309 22.745C56.5209 22.445 56.1259 22.02 55.8459 21.47C55.5659 20.92 55.4259 20.275 55.4259 19.535C55.4259 18.785 55.5659 18.14 55.8459 17.6C56.1359 17.05 56.5359 16.625 57.0459 16.325C57.5659 16.025 58.1659 15.875 58.8459 15.875C59.5259 15.875 60.1209 16.025 60.6309 16.325C61.1409 16.625 61.5359 17.05 61.8159 17.6C62.1059 18.14 62.2509 18.785 62.2509 19.535ZM58.8459 16.865C58.1759 16.865 57.6409 17.105 57.2409 17.585C56.8509 18.055 56.6559 18.705 56.6559 19.535C56.6559 20.375 56.8459 21.03 57.2259 21.5C57.6159 21.97 58.1559 22.205 58.8459 22.205C59.5259 22.205 60.0559 21.97 60.4359 21.5C60.8259 21.02 61.0209 20.365 61.0209 19.535C61.0209 18.705 60.8259 18.055 60.4359 17.585C60.0559 17.105 59.5259 16.865 58.8459 16.865ZM59.8659 14.885L58.8909 13.73C58.6609 14.01 58.4309 14.27 58.2009 14.51C57.9809 14.74 57.7709 14.97 57.5709 15.2C57.3909 15.18 57.2409 15.125 57.1209 15.035C57.0009 14.945 56.9409 14.835 56.9409 14.705C56.9409 14.595 56.9709 14.5 57.0309 14.42C57.1009 14.33 57.1809 14.235 57.2709 14.135L58.1859 13.145C58.3159 13.035 58.4309 12.95 58.5309 12.89C58.6409 12.83 58.7609 12.8 58.8909 12.8C59.0509 12.8 59.1809 12.83 59.2809 12.89C59.3909 12.95 59.4959 13.04 59.5959 13.16L60.8559 14.66C60.8559 14.79 60.8159 14.91 60.7359 15.02C60.6659 15.12 60.5509 15.17 60.3909 15.17C60.2709 15.17 60.1709 15.145 60.0909 15.095C60.0209 15.035 59.9459 14.965 59.8659 14.885ZM73.9799 14.885C73.9799 15.015 73.9349 15.135 73.8449 15.245C73.7649 15.345 73.6699 15.42 73.5599 15.47C73.3099 15.29 73.0049 15.12 72.6449 14.96C72.2949 14.8 71.8399 14.72 71.2799 14.72C70.6699 14.72 70.1199 14.86 69.6299 15.14C69.1499 15.42 68.7649 15.84 68.4749 16.4C68.1949 16.95 68.0549 17.635 68.0549 18.455C68.0549 19.685 68.3549 20.61 68.9549 21.23C69.5649 21.85 70.3549 22.16 71.3249 22.16C71.8449 22.16 72.2999 22.085 72.6899 21.935C73.0799 21.785 73.3999 21.615 73.6499 21.425C73.7499 21.465 73.8449 21.54 73.9349 21.65C74.0249 21.75 74.0699 21.87 74.0699 22.01C74.0699 22.11 74.0399 22.21 73.9799 22.31C73.9299 22.4 73.8399 22.49 73.7099 22.58C73.4799 22.74 73.1649 22.88 72.7649 23C72.3649 23.13 71.8549 23.195 71.2349 23.195C70.4049 23.195 69.6499 23.02 68.9699 22.67C68.2999 22.31 67.7699 21.78 67.3799 21.08C66.9899 20.38 66.7949 19.505 66.7949 18.455C66.7949 17.405 66.9949 16.525 67.3949 15.815C67.8049 15.105 68.3399 14.575 68.9999 14.225C69.6699 13.865 70.3999 13.685 71.1899 13.685C71.7399 13.685 72.2249 13.745 72.6449 13.865C73.0649 13.985 73.3899 14.14 73.6199 14.33C73.8599 14.51 73.9799 14.695 73.9799 14.885ZM82.6517 14.885C82.6517 15.015 82.6067 15.135 82.5167 15.245C82.4367 15.345 82.3417 15.42 82.2317 15.47C81.9817 15.29 81.6767 15.12 81.3167 14.96C80.9667 14.8 80.5117 14.72 79.9517 14.72C79.3417 14.72 78.7917 14.86 78.3017 15.14C77.8217 15.42 77.4367 15.84 77.1467 16.4C76.8667 16.95 76.7267 17.635 76.7267 18.455C76.7267 19.685 77.0267 20.61 77.6267 21.23C78.2367 21.85 79.0267 22.16 79.9967 22.16C80.5167 22.16 80.9717 22.085 81.3617 21.935C81.7517 21.785 82.0717 21.615 82.3217 21.425C82.4217 21.465 82.5167 21.54 82.6067 21.65C82.6967 21.75 82.7417 21.87 82.7417 22.01C82.7417 22.11 82.7117 22.21 82.6517 22.31C82.6017 22.4 82.5117 22.49 82.3817 22.58C82.1517 22.74 81.8367 22.88 81.4367 23C81.0367 23.13 80.5267 23.195 79.9067 23.195C79.0767 23.195 78.3217 23.02 77.6417 22.67C76.9717 22.31 76.4417 21.78 76.0517 21.08C75.6617 20.38 75.4667 19.505 75.4667 18.455C75.4667 17.405 75.6667 16.525 76.0667 15.815C76.4767 15.105 77.0117 14.575 77.6717 14.225C78.3417 13.865 79.0717 13.685 79.8617 13.685C80.4117 13.685 80.8967 13.745 81.3167 13.865C81.7367 13.985 82.0617 14.14 82.2917 14.33C82.5317 14.51 82.6517 14.695 82.6517 14.885ZM91.3236 14.885C91.3236 15.015 91.2786 15.135 91.1886 15.245C91.1086 15.345 91.0136 15.42 90.9036 15.47C90.6536 15.29 90.3486 15.12 89.9886 14.96C89.6386 14.8 89.1836 14.72 88.6236 14.72C88.0136 14.72 87.4636 14.86 86.9736 15.14C86.4936 15.42 86.1086 15.84 85.8186 16.4C85.5386 16.95 85.3986 17.635 85.3986 18.455C85.3986 19.685 85.6986 20.61 86.2986 21.23C86.9086 21.85 87.6986 22.16 88.6686 22.16C89.1886 22.16 89.6436 22.085 90.0336 21.935C90.4236 21.785 90.7436 21.615 90.9936 21.425C91.0936 21.465 91.1886 21.54 91.2786 21.65C91.3686 21.75 91.4136 21.87 91.4136 22.01C91.4136 22.11 91.3836 22.21 91.3236 22.31C91.2736 22.4 91.1836 22.49 91.0536 22.58C90.8236 22.74 90.5086 22.88 90.1086 23C89.7086 23.13 89.1986 23.195 88.5786 23.195C87.7486 23.195 86.9936 23.02 86.3136 22.67C85.6436 22.31 85.1136 21.78 84.7236 21.08C84.3336 20.38 84.1386 19.505 84.1386 18.455C84.1386 17.405 84.3386 16.525 84.7386 15.815C85.1486 15.105 85.6836 14.575 86.3436 14.225C87.0136 13.865 87.7436 13.685 88.5336 13.685C89.0836 13.685 89.5686 13.745 89.9886 13.865C90.4086 13.985 90.7336 14.14 90.9636 14.33C91.2036 14.51 91.3236 14.695 91.3236 14.885ZM99.872 18.335C99.872 17.475 99.702 16.785 99.362 16.265C99.032 15.735 98.587 15.35 98.027 15.11C97.477 14.86 96.862 14.735 96.182 14.735C95.872 14.735 95.597 14.745 95.357 14.765C95.117 14.785 94.897 14.815 94.697 14.855V21.995C94.937 22.055 95.192 22.095 95.462 22.115C95.742 22.135 96.027 22.145 96.317 22.145C97.487 22.145 98.372 21.825 98.972 21.185C99.572 20.535 99.872 19.585 99.872 18.335ZM101.117 18.335C101.117 19.425 100.917 20.33 100.517 21.05C100.127 21.76 99.572 22.29 98.852 22.64C98.142 22.99 97.302 23.165 96.332 23.165C96.022 23.165 95.662 23.15 95.252 23.12C94.852 23.1 94.472 23.035 94.112 22.925C93.692 22.795 93.482 22.565 93.482 22.235V14.525C93.482 14.365 93.522 14.245 93.602 14.165C93.692 14.075 93.817 14.005 93.977 13.955C94.287 13.855 94.637 13.79 95.027 13.76C95.417 13.73 95.807 13.715 96.197 13.715C97.177 13.715 98.032 13.89 98.762 14.24C99.502 14.58 100.077 15.09 100.487 15.77C100.907 16.45 101.117 17.305 101.117 18.335Z" fill="black"/>
        </g>
    </g>
    <defs>
        <filter id="filter0_d_745_6923" x="0" y="0" width="113" height="44" filterUnits="userSpaceOnUse" color-interpolation-filters="sRGB">
            <feFlood flood-opacity="0" result="BackgroundImageFix"/>
            <feColorMatrix in="SourceAlpha" type="matrix" values="0 0 0 0 0 0 0 0 0 0 0 0 0 0 0 0 0 0 127 0" result="hardAlpha"/>
            <feOffset dy="4"/>
            <feGaussianBlur stdDeviation="2"/>
            <feComposite in2="hardAlpha" operator="out"/>
            <feColorMatrix type="matrix" values="0 0 0 0 0.568627 0 0 0 0 0.843137 0 0 0 0 0.890196 0 0 0 0.25 0"/>
            <feBlend mode="normal" in2="BackgroundImageFix" result="effect1_dropShadow_745_6923"/>
            <feBlend mode="normal" in="SourceGraphic" in2="effect1_dropShadow_745_6923" result="shape"/>
        </filter>
        <linearGradient id="paint0_linear_745_6923" x1="91.7148" y1="-10" x2="77.7948" y2="26.4993" gradientUnits="userSpaceOnUse">
            <stop stop-color="#91D7E3" stop-opacity="0.4"/>
            <stop offset="1" stop-color="white" stop-opacity="0"/>
        </linearGradient>
        <linearGradient id="paint1_linear_745_6923" x1="86.2937" y1="7.89056" x2="48.1784" y2="49.8844" gradientUnits="userSpaceOnUse">
            <stop stop-color="#91D7E3" stop-opacity="0.25"/>
            <stop offset="1" stop-color="white" stop-opacity="0.54"/>
        </linearGradient>
        <clipPath id="clip0_745_6923">
            <rect x="4" width="105" height="36" rx="8" fill="white"/>
        </clipPath>
    </defs>
</svg>
