<svg width="32" height="32" viewBox="0 0 32 32" fill="none" xmlns="http://www.w3.org/2000/svg">
    <rect width="32" height="32" rx="8" fill="#91D7E3" fill-opacity="0.1"/>
    <path fill-rule="evenodd" clip-rule="evenodd" d="M15.3038 22.2164C15.1671 22.3 15.0398 22.3758 14.9234 22.4438C14.7993 22.3752 14.6615 22.2963 14.5122 22.2073C13.8081 21.7875 12.8949 21.1712 11.9956 20.4026C10.151 18.826 8.6 16.8134 8.6 14.6667C8.6 11.7211 11.4654 9.33333 15 9.33333C18.5346 9.33333 21.4 11.7211 21.4 14.6667C21.4 16.7904 19.7807 18.7972 17.8686 20.3905C16.9409 21.1636 16.0074 21.7866 15.3038 22.2164ZM23 14.6667C23 20 15 24 15 24C14.6 24 7 20 7 14.6667C7 10.9848 10.5817 8 15 8C19.4182 8 23 10.9848 23 14.6667ZM16.6 14.6667C16.6 15.403 15.8836 16 15 16C14.1164 16 13.4 15.403 13.4 14.6667C13.4 13.9303 14.1164 13.3333 15 13.3333C15.8836 13.3333 16.6 13.9303 16.6 14.6667ZM18.2 14.6667C18.2 16.1395 16.7674 17.3333 15 17.3333C13.2326 17.3333 11.8 16.1395 11.8 14.6667C11.8 13.1939 13.2326 12 15 12C16.7674 12 18.2 13.1939 18.2 14.6667Z" fill="#1548A2"/>
</svg>
