<svg width="20" height="16" viewBox="0 0 20 16" fill="none" xmlns="http://www.w3.org/2000/svg">
    <path d="M18.3333 1H1.66667C0.746528 1 0 1.67188 0 2.5V13.5C0 14.3281 0.746528 15 1.66667 15H18.3333C19.2535 15 20 14.3281 20 13.5V2.5C20 1.67188 19.2535 1 18.3333 1ZM18.3333 13.5H1.66667V2.5H18.3333V13.5ZM7.22222 8C8.44792 8 9.44444 7.10313 9.44444 6C9.44444 4.89687 8.44792 4 7.22222 4C5.99653 4 5 4.89687 5 6C5 7.10313 5.99653 8 7.22222 8ZM4.11111 12H10.3333C10.7639 12 11.1111 11.7312 11.1111 11.4V10.8C11.1111 9.80625 10.066 9 8.77778 9C8.40278 9 8.12847 9.25 7.22222 9.25C6.28819 9.25 6.0625 9 5.66667 9C4.37847 9 3.33333 9.80625 3.33333 10.8V11.4C3.33333 11.7312 3.68056 12 4.11111 12ZM12.5 10H16.3889C16.5417 10 16.6667 9.8875 16.6667 9.75V9.25C16.6667 9.1125 16.5417 9 16.3889 9H12.5C12.3472 9 12.2222 9.1125 12.2222 9.25V9.75C12.2222 9.8875 12.3472 10 12.5 10ZM12.5 8H16.3889C16.5417 8 16.6667 7.8875 16.6667 7.75V7.25C16.6667 7.1125 16.5417 7 16.3889 7H12.5C12.3472 7 12.2222 7.1125 12.2222 7.25V7.75C12.2222 7.8875 12.3472 8 12.5 8ZM12.5 6H16.3889C16.5417 6 16.6667 5.8875 16.6667 5.75V5.25C16.6667 5.1125 16.5417 5 16.3889 5H12.5C12.3472 5 12.2222 5.1125 12.2222 5.25V5.75C12.2222 5.8875 12.3472 6 12.5 6Z" fill="#939393"/>
</svg>
