<svg width="24" height="20" viewBox="0 0 24 20" fill="none" xmlns="http://www.w3.org/2000/svg">
    <path d="M19.3747 19.261H5.37492C4.21462 19.261 3.10184 18.8911 2.28138 18.2328C1.46093 17.5744 1 16.6815 1 15.7504V5.92086C1 5.73465 1.09219 5.55607 1.25628 5.42439C1.42037 5.29272 1.64292 5.21875 1.87498 5.21875H19.3747C20.535 5.21875 21.6477 5.58861 22.4682 6.24697C23.2887 6.90533 23.7496 7.79825 23.7496 8.72931V15.7504C23.7496 16.6815 23.2887 17.5744 22.4682 18.2328C21.6477 18.8911 20.535 19.261 19.3747 19.261ZM2.74997 6.62297V15.7504C2.74997 16.3091 3.02653 16.8448 3.5188 17.2398C4.01107 17.6349 4.67874 17.8568 5.37492 17.8568H19.3747C20.0708 17.8568 20.7385 17.6349 21.2308 17.2398C21.7231 16.8448 21.9996 16.3091 21.9996 15.7504V8.72931C21.9996 8.17068 21.7231 7.63492 21.2308 7.23991C20.7385 6.84489 20.0708 6.62297 19.3747 6.62297H2.74997Z" fill="#1548A2"/>
    <path d="M21.1247 6.62322C20.8927 6.62322 20.6701 6.54925 20.506 6.41757C20.3419 6.2859 20.2497 6.10732 20.2497 5.92111V3.9903C20.2665 3.74434 20.2138 3.49852 20.0957 3.27118C19.9775 3.04384 19.7969 2.84084 19.5673 2.67735C19.3609 2.55332 19.1221 2.46863 18.869 2.4297C18.6158 2.39077 18.3549 2.39863 18.106 2.45267L3.43255 5.12772C3.23517 5.16339 3.0593 5.25284 2.93486 5.38086C2.81043 5.50887 2.74512 5.66753 2.75006 5.82983C2.75006 6.01604 2.65788 6.19463 2.49379 6.3263C2.3297 6.45797 2.10714 6.53194 1.87508 6.53194C1.64302 6.53194 1.42046 6.45797 1.25637 6.3263C1.09228 6.19463 1.0001 6.01604 1.0001 5.82983C0.994963 5.34986 1.19428 4.88288 1.56503 4.50621C1.93579 4.12954 2.45574 3.86578 3.03881 3.7586L17.721 1.08355C18.226 0.981096 18.7535 0.972752 19.2631 1.05916C19.7727 1.14557 20.2509 1.32443 20.661 1.58205C21.0947 1.87739 21.4401 2.24713 21.6718 2.66395C21.9035 3.08078 22.0156 3.53406 21.9997 3.9903V5.92111C21.9997 6.10732 21.9075 6.2859 21.7434 6.41757C21.5793 6.54925 21.3568 6.62322 21.1247 6.62322Z" fill="#1548A2"/>
    <path d="M22.8748 15.0485H16.7499C15.8217 15.0485 14.9315 14.7526 14.2751 14.226C13.6187 13.6993 13.25 12.9849 13.25 12.2401C13.25 11.4952 13.6187 10.7809 14.2751 10.2542C14.9315 9.72753 15.8217 9.43164 16.7499 9.43164H22.8748C23.1069 9.43164 23.3294 9.50561 23.4935 9.63728C23.6576 9.76896 23.7498 9.94754 23.7498 10.1338V14.3464C23.7498 14.5326 23.6576 14.7112 23.4935 14.8429C23.3294 14.9746 23.1069 15.0485 22.8748 15.0485ZM16.7499 10.8359C16.2858 10.8359 15.8407 10.9838 15.5125 11.2472C15.1843 11.5105 15 11.8677 15 12.2401C15 12.6125 15.1843 12.9697 15.5125 13.233C15.8407 13.4964 16.2858 13.6443 16.7499 13.6443H21.9998V10.8359H16.7499Z" fill="#1548A2"/>
</svg>
