<svg width="427" height="213" viewBox="0 0 427 213" fill="none" xmlns="http://www.w3.org/2000/svg">
    <path d="M64.3607 23.4064L88.7116 47.5443L90.9614 43.7042L64.3607 17.0062L36.4365 44.6185L38.6863 48.4586L64.3607 23.4064Z" fill="#EAF7FF"/>
    <path d="M126.826 209.195V74.2422H132.649V66.3791H126.826H92.4171V74.2422V209.012H98.1078V185.24C98.1078 176.462 103.269 169.331 109.622 169.331C115.974 169.331 121.135 176.462 121.135 185.24V209.012H88.0498V54.493L63.6989 30.7209L39.2157 54.493V209.012H34.8484V74.2422V66.3791H0.439484H-5.11888V74.2422H0.571823V209.012H6.26253V185.24C6.26253 176.462 11.4239 169.331 17.7763 169.331C24.1287 169.331 29.29 176.462 29.29 185.24V209.012H-5.11888L-5.25122 216.875H132.384L132.517 209.012H126.826V209.195ZM121.003 98.3801V103.866H98.1078V98.3801H121.003ZM98.1078 88.5055V83.0196H121.003V88.5055H98.1078ZM121.003 113.741V119.226H98.1078V113.741H121.003ZM121.003 131.112V136.598H98.1078V131.112H121.003ZM98.1078 152.507V147.021H121.003V152.507H98.1078ZM29.29 98.5629V104.049H6.39487V98.5629H29.29ZM6.39487 88.5055V83.0196H29.29V88.5055H6.39487ZM29.29 113.923V119.409H6.39487V113.923H29.29ZM29.29 131.112V136.598H6.39487V131.112H29.29ZM6.39487 152.507V147.021H29.29V152.507H6.39487ZM58.0082 162.565H69.522V209.195H58.0082V162.565Z" fill="#EAF7FF"/>
    <path d="M280.295 207.761V95.9377L232.243 78.6337V207.761H228.699C228.699 178.703 228.567 149.482 228.567 120.424C217.277 120.588 205.067 120.588 193.776 120.751V207.924H190.757V95.9377H142.312V207.761H135.353V216.413H287.647V207.761H280.295ZM259.157 104.1H272.942V123.2H259.157V104.1ZM259.157 128.423H272.942V147.523H259.157V128.423ZM259.157 154.543H272.942V173.642H259.157V154.543ZM259.157 180.988H272.942V200.088H259.157V180.988ZM237.889 104.1H251.674V123.2H237.889V104.1ZM237.889 128.423H251.674V147.523H237.889V128.423ZM237.889 154.543H251.674V173.642H237.889V154.543ZM237.889 180.988H251.674V200.088H237.889V180.988ZM170.013 105.079H183.798V122.22H170.013V105.079ZM170.013 130.382H183.798V147.523H170.013V130.382ZM170.013 156.175H183.798V173.316H170.013V156.175ZM170.013 181.968H183.798V199.109H170.013V181.968ZM149.138 105.079H162.924V122.22H149.138V105.079ZM149.138 130.382H162.924V147.523H149.138V130.382ZM149.138 156.175H162.924V173.316H149.138V156.175ZM149.138 181.968H162.924V199.109H149.138V181.968Z" fill="#EAF7FF"/>
    <path d="M434.623 199.355H432.018V95.0815C432.018 90.5037 429.153 86.7735 425.637 86.7735H391.125C387.609 86.7735 384.874 90.5037 384.874 95.0815V199.355H379.144V77.4483L360.651 57.9499L340.986 77.4483V199.355H335.255V95.0815C335.255 90.5037 332.39 86.7735 328.874 86.7735H294.492C290.976 86.7735 288.241 90.5037 288.241 95.0815V199.355H286.678V216.31H434.493V199.355H434.623ZM405.06 174.262V191.725H391.516V174.262H405.06ZM391.516 165.445V147.981H404.93V165.445H391.516ZM411.702 96.0988H425.116V113.563H411.702V96.0988ZM411.702 121.871H425.116V139.334H411.702V121.871ZM411.702 147.981H425.116V165.445H411.702V147.981ZM411.702 174.262H425.116V191.725H411.702V174.262ZM391.516 96.0988H404.93V113.563H391.516V96.0988ZM391.516 121.871H404.93V139.334H391.516V121.871ZM315.069 96.0988H328.483V113.563H315.069V96.0988ZM315.069 121.871H328.483V139.334H315.069V121.871ZM315.069 147.981H328.483V165.445H315.069V147.981ZM315.069 174.262H328.483V191.725H315.069V174.262ZM294.883 96.0988H308.297V113.563H294.883V96.0988ZM294.883 121.871H308.297V139.334H294.883V121.871ZM294.883 147.981H308.297V165.445H294.883V147.981ZM294.883 174.262H308.297V191.725H294.883V174.262ZM354.53 151.711H366.902V199.355H354.53V151.711Z" fill="#B7D1FF" fill-opacity="0.25"/>
    <path d="M379.144 71.1749C379.144 68.9707 379.274 66.9361 379.274 64.7319C373.023 58.1195 366.902 51.6765 360.651 45.0641C354.4 51.8461 346.846 58.7977 340.595 65.5797C340.595 67.9534 340.595 69.4794 340.595 72.0226C346.846 65.071 354.269 58.289 360.521 51.507C366.772 58.1195 373.023 64.5624 379.144 71.1749Z" fill="#B7D1FF" fill-opacity="0.25"/>
</svg>
