<svg width="32" height="32" viewBox="0 0 32 32" fill="none" xmlns="http://www.w3.org/2000/svg">
    <rect width="32" height="32" rx="8" fill="#91D7E3" fill-opacity="0.1"/>
    <path d="M17 23C15.6155 23 14.2622 22.5895 13.111 21.8203C11.9599 21.0511 11.0627 19.9579 10.5328 18.6788C10.003 17.3997 9.86441 15.9922 10.1345 14.6344C10.4046 13.2765 11.0713 12.0292 12.0503 11.0503C13.0292 10.0713 14.2765 9.4046 15.6344 9.13451C16.9922 8.86441 18.3997 9.00303 19.6788 9.53285C20.9579 10.0627 22.0511 10.9599 22.8203 12.111C23.5895 13.2622 24 14.6155 24 16C24 17.8565 23.2625 19.637 21.9497 20.9497C20.637 22.2625 18.8565 23 17 23ZM17 10C15.8133 10 14.6533 10.3519 13.6666 11.0112C12.6799 11.6705 11.9109 12.6075 11.4567 13.7039C11.0026 14.8003 10.8838 16.0067 11.1153 17.1705C11.3468 18.3344 11.9182 19.4035 12.7574 20.2426C13.5965 21.0818 14.6656 21.6532 15.8295 21.8847C16.9933 22.1162 18.1997 21.9974 19.2961 21.5433C20.3925 21.0892 21.3295 20.3201 21.9888 19.3334C22.6481 18.3467 23 17.1867 23 16C23 14.4087 22.3679 12.8826 21.2426 11.7574C20.1174 10.6321 18.5913 10 17 10Z" fill="#1548A2"/>
    <path d="M17 23C16.8674 23 16.7402 22.9473 16.6464 22.8536C16.5527 22.7598 16.5 22.6326 16.5 22.5V9.5C16.5 9.36739 16.5527 9.24021 16.6464 9.14645C16.7402 9.05268 16.8674 9 17 9C17.1326 9 17.2598 9.05268 17.3536 9.14645C17.4473 9.24021 17.5 9.36739 17.5 9.5V22.5C17.5 22.6326 17.4473 22.7598 17.3536 22.8536C17.2598 22.9473 17.1326 23 17 23Z" fill="#1548A2"/>
    <path d="M20.5 16.5C20.3674 16.5 20.2402 16.4473 20.1464 16.3536C20.0527 16.2598 20 16.1326 20 16C20 12.75 18.625 10 17 10C16.8674 10 16.7402 9.94732 16.6464 9.85355C16.5527 9.75979 16.5 9.63261 16.5 9.5C16.5 9.36739 16.5527 9.24021 16.6464 9.14645C16.7402 9.05268 16.8674 9 17 9C19.245 9 21 12.075 21 16C21 16.1326 20.9473 16.2598 20.8536 16.3536C20.7598 16.4473 20.6326 16.5 20.5 16.5Z" fill="#1548A2"/>
    <path d="M17 23C16.8674 23 16.7402 22.9473 16.6464 22.8536C16.5527 22.7598 16.5 22.6326 16.5 22.5C16.5 22.3674 16.5527 22.2402 16.6464 22.1464C16.7402 22.0527 16.8674 22 17 22C18.625 22 20 19.25 20 16C20 15.8674 20.0527 15.7402 20.1464 15.6464C20.2402 15.5527 20.3674 15.5 20.5 15.5C20.6326 15.5 20.7598 15.5527 20.8536 15.6464C20.9473 15.7402 21 15.8674 21 16C21 19.925 19.245 23 17 23Z" fill="#1548A2"/>
    <path d="M13.5 16.5C13.3674 16.5 13.2402 16.4473 13.1464 16.3536C13.0527 16.2598 13 16.1326 13 16C13 12.075 14.755 9 17 9C17.1326 9 17.2598 9.05268 17.3536 9.14645C17.4473 9.24021 17.5 9.36739 17.5 9.5C17.5 9.63261 17.4473 9.75979 17.3536 9.85355C17.2598 9.94732 17.1326 10 17 10C15.375 10 14 12.75 14 16C14 16.1326 13.9473 16.2598 13.8536 16.3536C13.7598 16.4473 13.6326 16.5 13.5 16.5Z" fill="#1548A2"/>
    <path d="M17 23C14.755 23 13 19.925 13 16C13 15.8674 13.0527 15.7402 13.1464 15.6464C13.2402 15.5527 13.3674 15.5 13.5 15.5C13.6326 15.5 13.7598 15.5527 13.8536 15.6464C13.9473 15.7402 14 15.8674 14 16C14 19.25 15.375 22 17 22C17.1326 22 17.2598 22.0527 17.3536 22.1464C17.4473 22.2402 17.5 22.3674 17.5 22.5C17.5 22.6326 17.4473 22.7598 17.3536 22.8536C17.2598 22.9473 17.1326 23 17 23Z" fill="#1548A2"/>
    <path d="M23.5 16.5H10.5C10.3674 16.5 10.2402 16.4473 10.1464 16.3536C10.0527 16.2598 10 16.1326 10 16C10 15.8674 10.0527 15.7402 10.1464 15.6464C10.2402 15.5527 10.3674 15.5 10.5 15.5H23.5C23.6326 15.5 23.7598 15.5527 23.8536 15.6464C23.9473 15.7402 24 15.8674 24 16C24 16.1326 23.9473 16.2598 23.8536 16.3536C23.7598 16.4473 23.6326 16.5 23.5 16.5Z" fill="#1548A2"/>
    <path d="M22.5 13.5H11.5C11.3674 13.5 11.2402 13.4473 11.1464 13.3536C11.0527 13.2598 11 13.1326 11 13C11 12.8674 11.0527 12.7402 11.1464 12.6464C11.2402 12.5527 11.3674 12.5 11.5 12.5H22.5C22.6326 12.5 22.7598 12.5527 22.8536 12.6464C22.9473 12.7402 23 12.8674 23 13C23 13.1326 22.9473 13.2598 22.8536 13.3536C22.7598 13.4473 22.6326 13.5 22.5 13.5Z" fill="#1548A2"/>
    <path d="M22.5 19.5H11.5C11.3674 19.5 11.2402 19.4473 11.1464 19.3536C11.0527 19.2598 11 19.1326 11 19C11 18.8674 11.0527 18.7402 11.1464 18.6464C11.2402 18.5527 11.3674 18.5 11.5 18.5H22.5C22.6326 18.5 22.7598 18.5527 22.8536 18.6464C22.9473 18.7402 23 18.8674 23 19C23 19.1326 22.9473 19.2598 22.8536 19.3536C22.7598 19.4473 22.6326 19.5 22.5 19.5Z" fill="#1548A2"/>
</svg>
